<svg xmlns="http://www.w3.org/2000/svg" viewBox="0 0 110.0 140.0" role="img" aria-label="Hecho en Oaxaca"><circle cx="55" cy="70" r="44" fill="#fff8ee"/><clipPath id="ck3x"><circle cx="55" cy="70" r="44"/></clipPath><g clip-path="url(#ck3x)"><path d="M55 26A43.624 44 0 0 0 55 114" fill="none" stroke="#e4007c" stroke-width="1.98"/><path d="M55 26A40.651 44 0 0 0 55 114" fill="none" stroke="#00a3a3" stroke-width="1.98"/><path d="M55 26A34.908 44 0 0 0 55 114" fill="none" stroke="#f2b200" stroke-width="1.98"/><path d="M55 26A26.786 44 0 0 0 55 114" fill="none" stroke="#f26419" stroke-width="1.98"/><path d="M55 26A16.838 44 0 0 0 55 114" fill="none" stroke="#7b3fb3" stroke-width="1.98"/><path d="M55 26A5.743 44 0 0 0 55 114" fill="none" stroke="#e4007c" stroke-width="1.98"/><path d="M55 26A5.743 44 0 0 1 55 114" fill="none" stroke="#00a3a3" stroke-width="1.98"/><path d="M55 26A16.838 44 0 0 1 55 114" fill="none" stroke="#f2b200" stroke-width="1.98"/><path d="M55 26A26.786 44 0 0 1 55 114" fill="none" stroke="#f26419" stroke-width="1.98"/><path d="M55 26A34.908 44 0 0 1 55 114" fill="none" stroke="#7b3fb3" stroke-width="1.98"/><path d="M55 26A40.651 44 0 0 1 55 114" fill="none" stroke="#e4007c" stroke-width="1.98"/><path d="M55 26A43.624 44 0 0 1 55 114" fill="none" stroke="#00a3a3" stroke-width="1.98"/></g><clipPath id="bk3x"><circle cx="55" cy="70" r="44"/></clipPath><rect clip-path="url(#bk3x)" x="11" y="62.52" width="88" height="14.96" fill="#e4007c"/><path d="M22.00 77.48H33.44L27.72 84.63Z" fill="#e4007c"/><path d="M35.64 77.48H47.08L41.36 84.63Z" fill="#00a3a3"/><path d="M49.28 77.48H60.72L55.00 84.63Z" fill="#f2b200"/><path d="M62.92 77.48H74.36L68.64 84.63Z" fill="#f26419"/><path d="M76.56 77.48H88.00L82.28 84.63Z" fill="#7b3fb3"/><circle cx="55" cy="70" r="44" fill="none" stroke="#1a1210" stroke-width="3.08"/><path d="M55 12.80V26.00M55 114.00V127.20" stroke="#1a1210" stroke-width="3.70" stroke-linecap="round"/><rect x="45.32" y="23.78" width="19.36" height="4.44" rx="2.22" fill="#1a1210"/><rect x="45.32" y="111.78" width="19.36" height="4.44" rx="2.22" fill="#1a1210"/></svg>
