<svg xmlns="http://www.w3.org/2000/svg" viewBox="0 0 110 144" role="img" aria-label="Hecho en Oaxaca"><circle cx="55" cy="72" r="44" fill="var(--oaxaca-manta,#fff8ee)"/><clipPath id="cd3-estructura-color"><circle cx="55" cy="72" r="44"/></clipPath><g clip-path="url(#cd3-estructura-color)" fill="none" stroke="var(--oaxaca-color,#e4007c)" stroke-width="1.98" stroke-opacity=".55"><path d="M55 28A43.624 44 0 0 0 55 116"/><path d="M55 28A40.651 44 0 0 0 55 116"/><path d="M55 28A34.908 44 0 0 0 55 116"/><path d="M55 28A26.786 44 0 0 0 55 116"/><path d="M55 28A16.838 44 0 0 0 55 116"/><path d="M55 28A5.743 44 0 0 0 55 116"/><path d="M55 28A5.743 44 0 0 1 55 116"/><path d="M55 28A16.838 44 0 0 1 55 116"/><path d="M55 28A26.786 44 0 0 1 55 116"/><path d="M55 28A34.908 44 0 0 1 55 116"/><path d="M55 28A40.651 44 0 0 1 55 116"/><path d="M55 28A43.624 44 0 0 1 55 116"/></g><rect clip-path="url(#cd3-estructura-color)" x="11" y="64.52" width="88" height="14.96" fill="var(--oaxaca-color,#e4007c)"/><circle cx="55" cy="72" r="44" fill="none" stroke="currentColor" stroke-width="3.08"/><path d="M55 7.32V25.80M55 118.20V136.68" stroke="var(--oaxaca-color,#e4007c)" stroke-width="5.85" stroke-linecap="round"/><rect x="40.04" y="22.29" width="29.92" height="7.02" rx="3.51" fill="var(--oaxaca-color,#e4007c)"/><rect x="40.04" y="114.69" width="29.92" height="7.02" rx="3.51" fill="var(--oaxaca-color,#e4007c)"/></svg>
